<svg width="154" height="21" viewBox="0 0 154 21" fill="none" xmlns="http://www.w3.org/2000/svg">
<path d="M21.4337 20.0522C24.0912 20.0522 28.4151 18.5035 28.4151 14.4027C28.4151 11.4106 26.1974 9.75044 26.1974 9.75044C26.1974 9.75044 30.1868 8.20177 30.1868 4.76372C30.1868 0 25.2001 0 25.2001 0H5.14787L0.823975 20.0522H21.4337ZM19.5505 4.76372C19.5505 4.76372 21.3222 4.76372 20.8824 6.31239C20.5479 7.53274 19.3337 7.53274 19.3337 7.53274H11.5718L12.1231 4.76372H19.5505ZM18.1072 11.9681C18.1072 11.9681 19.8788 11.9681 19.439 13.5168C19.1045 14.7372 17.8903 14.7372 17.8903 14.7372H10.1284L10.7912 11.9681H18.1072ZM33.4019 3.54336H41.4921L42.1549 0H34.1762L33.4019 3.54336ZM38.0541 20.1637L40.9346 5.31504H33.0673L29.7408 20.1637H38.0541ZM51.0196 16.2858C49.3594 16.2858 48.4735 15.7345 48.6903 15.0655C49.1364 13.1823 55.0089 13.9566 56.6691 13.6221C57.4434 14.4027 54.6744 16.3973 51.0196 16.2858ZM63.316 20.0522L65.5337 9.63894C65.5337 8.30708 65.1992 3.43186 56.2293 3.54336C48.0275 3.65487 44.478 5.76106 43.7036 8.8646H51.6824C52.2337 7.64425 54.0116 7.53274 55.2257 7.53274C56.1116 7.53274 58.1063 7.53274 57.8833 9.08142C57.5488 10.9646 43.4806 7.63805 41.8142 14.731C41.0399 17.8345 41.9257 20.0522 47.3523 20.492C51.893 20.8265 55.9939 19.1602 55.9939 19.1602V20.046L63.316 20.0522ZM103.092 3.54336C109.516 2.99204 115.172 6.42389 115.612 11.1876H107.081C106.858 9.96726 106.196 9.08142 104.975 8.7469C103.204 8.19557 100.986 9.40973 100.435 11.2929C99.8833 13.2876 100.881 15.1708 102.652 15.6168C104.424 16.1681 106.307 15.0655 106.865 13.1761H115.395C114.509 17.1655 110.074 20.492 104.535 20.9319C98.0001 21.4832 92.4558 18.0513 92.016 13.1761C91.6815 8.53009 96.5567 4.10088 103.092 3.54336ZM148.964 20.1637L151.956 5.31504H143.977L140.651 20.1637H148.964ZM66.4195 20.0522H74.5098L76.2815 11.2991C76.393 10.9646 76.616 9.08142 79.385 9.08142C81.8257 9.08142 81.7142 10.7416 81.6027 11.4106C81.4912 11.9619 79.8311 20.0522 79.8311 20.0522H88.2496L90.0213 11.1876C91.3532 6.75841 89.1355 3.87168 84.2603 3.87168C81.1567 3.87168 77.7249 5.31504 77.7249 5.31504L77.9479 4.20619H69.8576L66.4195 20.0522ZM116.169 20.0522H124.259L126.031 11.2991C126.143 10.9646 126.366 9.08142 129.135 9.08142C131.575 9.08142 131.464 10.7416 131.352 11.4106C131.241 11.9619 129.581 20.0522 129.581 20.0522H137.999L139.771 11.1876C141.103 6.75841 138.885 3.87168 134.01 3.87168C130.906 3.87168 127.474 5.31504 127.474 5.31504L128.577 0H120.487L116.169 20.0522ZM144.423 3.54336H152.402L153.176 0H145.197L144.423 3.54336Z" fill="#010202"/>
</svg>
