<svg width="130" height="34" viewBox="0 0 130 34" fill="none" xmlns="http://www.w3.org/2000/svg">
<path d="M126.171 5.96859H126.74C127.013 5.96859 127.199 5.92745 127.299 5.84722C127.347 5.80889 127.385 5.75991 127.411 5.70419C127.436 5.64848 127.449 5.58757 127.446 5.52632C127.448 5.44389 127.422 5.36321 127.375 5.29592C127.325 5.22653 127.256 5.17394 127.176 5.14524C127.092 5.10924 126.934 5.09484 126.704 5.09484H126.171V5.96859ZM125.7 7.60707V4.69885H126.7C127.041 4.69885 127.289 4.7261 127.443 4.77907C127.595 4.83256 127.717 4.92719 127.808 5.06193C127.899 5.19409 127.945 5.33655 127.945 5.48569C127.945 5.69911 127.868 5.88322 127.716 6.0411C127.564 6.19796 127.363 6.28693 127.112 6.30596C127.215 6.34864 127.297 6.40007 127.359 6.45972C127.475 6.57338 127.618 6.76623 127.788 7.03674L128.142 7.60759H127.564L127.308 7.14834C127.104 6.78937 126.942 6.56361 126.822 6.47258C126.735 6.40418 126.611 6.36973 126.447 6.36973H126.171V7.60707H125.7ZM126.884 3.85081C126.504 3.85081 126.133 3.94852 125.772 4.14292C125.416 4.3353 125.123 4.62611 124.927 4.98067C124.728 5.32507 124.623 5.71551 124.622 6.1131C124.622 6.50344 124.722 6.87732 124.921 7.23628C125.121 7.59319 125.401 7.87192 125.761 8.07146C126.102 8.26802 126.49 8.37174 126.884 8.37231C127.275 8.37231 127.649 8.27254 128.007 8.07146C128.36 7.87852 128.65 7.58873 128.844 7.23628C129.039 6.89415 129.142 6.5071 129.143 6.1131C129.143 5.7202 129.042 5.34169 128.84 4.98067C128.645 4.62524 128.351 4.33402 127.994 4.1424C127.633 3.94801 127.262 3.85081 126.884 3.85081ZM126.884 3.40442C127.338 3.40442 127.783 3.52116 128.215 3.75413C128.643 3.98162 128.994 4.32958 129.226 4.7549C129.47 5.18998 129.589 5.64203 129.589 6.1131C129.589 6.57904 129.471 7.028 129.233 7.45845C129.001 7.88189 128.653 8.23021 128.23 8.46231C127.82 8.69506 127.356 8.81766 126.884 8.81819C126.412 8.81779 125.948 8.69519 125.537 8.46231C125.114 8.22952 124.766 7.88137 124.534 7.45845C124.3 7.04846 124.177 6.585 124.175 6.1131C124.175 5.64203 124.296 5.18998 124.54 4.7549C124.773 4.33042 125.125 3.98291 125.552 3.75464C125.986 3.52116 126.429 3.40442 126.884 3.40442Z" fill="black"/>
<path fill-rule="evenodd" clip-rule="evenodd" d="M14.8603 0.0600862C13.5042 0.0960854 12.1393 0.379451 10.8418 0.846926C5.8168 2.94414 2.3223 7.52015 0.74142 13.0105C0.474511 14.0412 0.258002 15.0728 0.141776 16.1373C0.141776 16.1718 0.0584632 17.2199 0.208117 16.937C0.357771 16.6881 0.424112 16.3214 0.507425 16.0381C1.27267 13.4595 2.20556 11.1129 3.63627 8.8835C7.06443 3.84103 12.5718 0.596989 18.3949 2.39438C19.477 2.75951 20.4417 3.29282 21.4065 3.92486C21.5891 4.05806 22.937 5.12312 22.6377 4.15783C22.3883 3.39361 21.7562 2.74306 21.2065 2.22724C19.3561 0.625788 17.1211 -8.3901e-05 14.8603 0.0600862ZM57.3615 5.10512C56.5798 5.10512 55.9812 5.37254 55.5646 5.92179C55.1316 6.45355 54.9326 7.25273 54.9326 8.30134V15.8889C53.9673 14.8244 52.9696 14.0581 51.9549 13.5413C51.2565 13.2041 50.5091 12.9797 49.7405 12.8763C49.2335 12.8082 48.7225 12.775 48.211 12.7771C45.6654 12.7771 43.5851 13.6745 42.0217 15.4708C40.4568 17.2682 39.6751 19.765 39.6751 22.9762C39.6751 24.4907 39.8757 25.9039 40.2578 27.202C40.6579 28.5 41.2395 29.6309 42.0048 30.5962C42.7408 31.5294 43.6717 32.2906 44.7325 32.8266C45.7811 33.3409 46.912 33.6083 48.1437 33.6083C48.6934 33.6083 49.2257 33.5568 49.7405 33.4576C50.0679 33.406 50.3907 33.3284 50.7058 33.2257C51.4851 32.96 52.2199 32.5786 52.8858 32.0942C53.5687 31.5944 54.2337 30.9459 54.9326 30.1642V30.662C54.9326 31.6119 55.1661 32.3272 55.6145 32.8425C56.0635 33.3414 56.6636 33.6083 57.3615 33.6083C58.0434 33.6083 58.6426 33.3589 59.092 32.8759C59.5415 32.3766 59.757 31.6453 59.757 30.662V8.03391C59.757 7.08611 59.558 6.35378 59.1414 5.85442C58.7099 5.35557 58.1103 5.10512 57.3615 5.10512ZM120.154 5.10512C119.373 5.10512 118.774 5.37254 118.358 5.92179C117.942 6.45355 117.726 7.25273 117.726 8.30134V15.8889C116.761 14.8244 115.762 14.0581 114.748 13.5413C114.115 13.225 113.367 12.9936 112.534 12.8763C112.027 12.8081 111.515 12.7749 111.003 12.7771C108.459 12.7771 106.396 13.6745 104.814 15.4708C103.251 17.2682 102.468 19.765 102.468 22.9762C102.468 24.4907 102.668 25.9039 103.067 27.202C103.466 28.5 104.031 29.6309 104.797 30.5962C105.533 31.5297 106.465 32.291 107.526 32.8266C108.574 33.3409 109.706 33.6083 110.938 33.6083C111.502 33.6083 112.035 33.5568 112.534 33.4576C112.868 33.4082 113.182 33.3254 113.499 33.2257C114.278 32.96 115.013 32.5786 115.678 32.0942C116.361 31.5944 117.044 30.9459 117.725 30.1642V30.662C117.725 31.6119 117.958 32.3272 118.407 32.8425C118.873 33.3414 119.456 33.6083 120.154 33.6083C120.87 33.6083 121.451 33.3589 121.902 32.8759C122.351 32.3766 122.584 31.6453 122.584 30.662V8.03391C122.584 7.08611 122.368 6.35378 121.952 5.85442C121.519 5.35557 120.937 5.10512 120.154 5.10512H120.154ZM13.5489 6.49109C12.8456 6.47269 12.1489 6.63169 11.5232 6.95342C9.44346 8.001 8.61085 10.5467 9.67591 12.6264C10.724 14.7066 13.2686 15.5392 15.3489 14.4747C17.4286 13.4261 18.2607 10.8804 17.1961 8.80173C16.8542 8.12261 16.3343 7.54902 15.692 7.14209C15.0497 6.73517 14.309 6.51018 13.5489 6.49109ZM71.521 12.7097C70.0399 12.7267 68.6925 12.9761 67.4613 13.441C66.1962 13.9414 65.1322 14.6573 64.2672 15.5727C63.4011 16.5035 62.7357 17.6195 62.2862 18.9165C61.8367 20.215 61.6043 21.6293 61.6043 23.1428C61.6043 26.3709 62.5361 28.8991 64.3659 30.7787C66.0965 32.5602 68.4765 33.491 71.521 33.5903C71.7036 33.6078 71.8702 33.6083 72.0533 33.6083C73.501 33.6083 74.7656 33.4247 75.8805 33.0426C76.995 32.6589 77.9099 32.194 78.6417 31.6273C79.391 31.0462 79.9233 30.4465 80.2899 29.8304C80.6561 29.2153 80.8381 28.6666 80.8381 28.2176C80.8381 27.7018 80.6726 27.2858 80.3563 27.0019C80.0246 26.7201 79.5905 26.5694 79.0747 26.5694C78.5759 26.5694 78.2107 26.6867 77.9433 26.9026C77.4316 27.3899 76.9103 27.8671 76.3799 28.3339C75.9609 28.6861 75.5218 29.0137 75.0649 29.3151C74.5815 29.6144 74.1001 29.8484 73.5838 29.9811C73.0849 30.1302 72.5192 30.1971 71.9036 30.1971C71.7699 30.1971 71.6373 30.1971 71.521 30.1801C70.7563 30.1302 70.0399 29.9142 69.3919 29.5141C68.6426 29.0657 68.0265 28.4007 67.5786 27.5352C67.1122 26.6368 66.8787 25.6051 66.8622 24.4408H76.9117C78.2436 24.4408 79.2912 24.2413 80.0395 23.8751C80.7723 23.476 81.1385 22.6434 81.1385 21.3624C81.1385 19.9646 80.7888 18.6007 80.0729 17.2533C79.3575 15.9213 78.2765 14.8244 76.8458 13.9743C75.4141 13.1268 73.683 12.7097 71.6877 12.7097H71.521ZM92.0699 12.7097C90.5888 12.7267 89.2244 12.9761 88.0102 13.441C86.7451 13.9414 85.6806 14.6573 84.7975 15.5727C83.949 16.5035 83.2845 17.6195 82.8361 18.9165C82.3861 20.215 82.1532 21.6293 82.1532 23.1428C82.1532 26.3709 83.068 28.8991 84.8983 30.7787C86.6279 32.5602 89.0249 33.491 92.0699 33.5903C92.237 33.6078 92.4181 33.6083 92.6012 33.6083C94.0329 33.6083 95.3139 33.4247 96.4284 33.0426C97.5428 32.6589 98.4582 32.194 99.19 31.6273C99.9234 31.0462 100.471 30.4465 100.838 29.8304C101.203 29.2153 101.387 28.6666 101.387 28.2176C101.387 27.7018 101.22 27.2858 100.887 27.0019C100.571 26.7201 100.139 26.5694 99.6066 26.5694C99.1232 26.5694 98.7575 26.6867 98.4911 26.9026C97.8421 27.5018 97.3279 27.9842 96.9283 28.3339C96.5034 28.6862 96.0587 29.0138 95.5963 29.3151C95.1319 29.6144 94.6315 29.8484 94.1332 29.9811C93.6163 30.1302 93.0686 30.1971 92.4525 30.1971C92.3188 30.1971 92.1861 30.1971 92.0699 30.1801C91.3041 30.1302 90.5883 29.9142 89.9393 29.5141C89.174 29.0657 88.5749 28.4007 88.1095 27.5352C87.66 26.6368 87.4265 25.6051 87.4101 24.4408H97.4425C98.791 24.4408 99.8391 24.2413 100.571 23.8751C101.321 23.476 101.685 22.6434 101.685 21.3624C101.685 19.9646 101.321 18.6007 100.605 17.2533C99.8895 15.9213 98.8239 14.8244 97.3762 13.9743C95.945 13.1268 94.2324 12.7097 92.2185 12.7097H92.0699ZM22.1887 12.7442C21.4399 12.7442 20.8568 12.9931 20.4412 13.4755C20.0087 13.9414 19.7922 14.6737 19.7922 15.6549V30.4794C19.7922 31.4771 20.0252 32.2598 20.507 32.7926C20.9905 33.3409 21.5886 33.6083 22.3379 33.6083C23.1031 33.6083 23.7182 33.3409 24.2016 32.8266C24.684 32.2938 24.9339 31.527 24.9339 30.4794V24.0741C24.9339 21.9605 25.0502 20.5467 25.2996 19.781C25.6488 18.8167 26.2155 18.0684 26.9638 17.5192C27.7131 16.9864 28.5446 16.7036 29.4601 16.7036C30.8563 16.7036 31.8051 17.153 32.2716 18.0504C32.737 18.9499 32.971 20.2464 32.971 21.9445V30.4794C32.971 31.4771 33.2029 32.2598 33.6858 32.7926C34.1677 33.3409 34.7838 33.6083 35.5491 33.6083C36.2973 33.6083 36.9129 33.3409 37.3789 32.8086C37.8453 32.2938 38.0942 31.5105 38.0942 30.4794V20.9463C38.0942 19.8154 38.0448 18.8825 37.9446 18.1672C37.8448 17.4349 37.6293 16.754 37.2796 16.1209C36.7473 15.0399 35.9651 14.2078 34.9001 13.6251C33.835 13.0424 32.6213 12.7442 31.2729 12.7442C29.8751 12.7442 28.6439 13.026 27.5624 13.5757C26.4978 14.1409 25.5166 15.0064 24.6002 16.2037V15.5727C24.6002 14.9735 24.5009 14.4577 24.2849 14.0247C24.0689 13.5927 23.7691 13.2759 23.4034 13.0594C23.0363 12.8429 22.6372 12.7442 22.1887 12.7442ZM71.5051 16.2875H71.521C72.8509 16.2875 73.933 16.72 74.7481 17.5855C75.5812 18.45 76.0461 19.765 76.1788 21.529H66.8617C67.0453 19.799 67.5441 18.484 68.3593 17.6025C69.1744 16.7205 70.2225 16.2875 71.5046 16.2875H71.5051ZM92.0529 16.2875H92.0699C93.4008 16.2875 94.4808 16.72 95.296 17.5855C96.1121 18.45 96.5945 19.765 96.7112 21.529H87.4106C87.5767 19.799 88.076 18.484 88.9081 17.6025C89.7238 16.7205 90.7719 16.2875 92.0529 16.2875ZM49.6757 16.5868H49.7405C50.6225 16.5868 51.4381 16.8532 52.1704 17.3695C52.9357 17.8848 53.5358 18.6336 53.9843 19.6154C54.4178 20.5971 54.6503 21.7784 54.6503 23.1433C54.6503 24.6069 54.4178 25.8211 53.9843 26.7859C53.5358 27.7512 52.9357 28.466 52.1874 28.9315C51.4546 29.3974 50.6225 29.6319 49.7405 29.6319H49.725C48.8266 29.6319 48.0105 29.382 47.2617 28.8996C46.4975 28.4007 45.9143 27.6684 45.4823 26.7036C45.0493 25.7219 44.8333 24.5406 44.8333 23.1428C44.8333 21.8283 45.0338 20.6635 45.4329 19.6817C45.8484 18.684 46.4141 17.9178 47.1624 17.3855C47.8947 16.8357 48.7433 16.5868 49.6757 16.5868ZM112.484 16.5868H112.534C113.416 16.5868 114.232 16.8532 114.98 17.3695C115.729 17.8848 116.329 18.6336 116.777 19.6154C117.227 20.5971 117.443 21.7784 117.443 23.1433C117.443 24.6069 117.227 25.8211 116.777 26.7859C116.329 27.7512 115.728 28.466 114.996 28.9315C114.259 29.3954 113.405 29.6385 112.534 29.6319H112.518C111.621 29.6319 110.804 29.382 110.055 28.8996C109.307 28.4007 108.708 27.6684 108.276 26.7036C107.843 25.7219 107.627 24.5406 107.627 23.1428C107.627 21.8283 107.825 20.664 108.241 19.6817C108.641 18.684 109.224 17.9178 109.956 17.3855C110.706 16.8357 111.536 16.5868 112.484 16.5868ZM16.398 16.754C15.066 17.5511 13.5026 18.0011 11.839 18.0011C11.4903 18.0011 11.157 17.9851 10.8073 17.9512V30.1971C10.8073 31.3285 11.0737 32.1771 11.59 32.7433C12.1223 33.3254 12.7718 33.6083 13.587 33.6083C14.418 33.6083 15.1015 33.3254 15.6158 32.7597C16.1326 32.194 16.398 31.3455 16.398 30.1971V16.7545V16.754Z" fill="black"/>
</svg>
