<svg width="132" height="60" viewBox="0 0 132 60" fill="none" xmlns="http://www.w3.org/2000/svg">
<path d="M66.1772 0L32.4263 14.4602H11.3685V20.3572H0.823914V60H131.52V20.3572H120.981V14.4602H99.9282L66.1772 0Z" fill="black"/>
<path d="M97.3457 25.0048V31.4142L101.491 31.4194L102.354 25.0048H97.3457ZM119.768 30.5568C120.035 30.5568 120.275 30.5359 120.275 30.2118C120.275 29.9556 120.04 29.9085 119.82 29.9085H119.386V30.5568H119.768ZM119.386 31.7331H119.067V29.6367H119.867C120.359 29.6367 120.604 29.8197 120.604 30.2327C120.604 30.6091 120.369 30.7711 120.066 30.8077L120.662 31.7278H120.306L119.752 30.8182H119.386V31.7331ZM119.768 32.2036C120.589 32.2036 121.237 31.5605 121.237 30.6823C121.237 29.8249 120.589 29.1714 119.768 29.1714C118.937 29.1714 118.288 29.8197 118.288 30.6823C118.288 31.5605 118.937 32.2036 119.768 32.2036ZM117.922 30.6823C117.922 29.6419 118.769 28.8682 119.768 28.8682C120.756 28.8682 121.608 29.6367 121.608 30.6823C121.608 31.7331 120.761 32.5068 119.768 32.5068C118.769 32.5068 117.922 31.7331 117.922 30.6823ZM21.6726 46.8415V25.0048H15.6971V52.0485H30.9154V46.8415H21.6726ZM81.8085 52.0432H96.0282V46.8363H87.8101V43.4434H96.0282V38.4299H87.8101V35.0161H96.0282V29.7883H81.8085V29.8144V52.0432ZM44.5705 35.0161H39.3113V46.8154H44.5653L44.5705 35.0161ZM50.5512 49.2045C50.5512 50.7729 49.2808 52.0485 47.7072 52.0485H36.1694C34.601 52.0485 33.3307 50.7729 33.3307 49.2045V32.6323C33.3307 31.0639 34.601 29.7883 36.1694 29.7883H47.7072C49.2756 29.7883 50.5512 31.0587 50.5512 32.627V32.6323V49.2045ZM72.4088 29.7883V46.8415H68.8016V29.7883H63.5476V46.8468H59.9404V29.7883H53.9545V49.2045C53.9545 50.7781 55.2249 52.0485 56.7985 52.0485H63.8718C65.0637 52.0485 66.172 51.2225 66.172 50.0358C66.172 51.2277 67.2803 52.0485 68.4723 52.0485H75.5455C77.1139 52.0485 78.3843 50.7729 78.3843 49.2045V29.7883H72.4088ZM117.002 43.6369L116.966 43.5585L116.898 43.4173L116.861 43.3441C115.915 41.4464 113.792 39.8624 110.384 38.4927L110.264 38.4456C109.589 38.179 107.535 37.3739 107.305 36.0669C107.242 35.701 107.388 35.1259 107.796 34.7757C108.225 34.3365 108.884 34.1117 109.757 34.1117C111.147 34.1117 112.731 34.6816 113.552 35.0214C115.277 35.7376 116.793 36.3754 116.809 36.3858L116.961 36.4486V31.5919L116.908 31.5605C116.877 31.5396 113.615 29.4799 110.316 29.0094C109.945 28.978 109.574 28.9623 109.202 28.9623C106.165 28.9623 103.865 30.0654 102.37 32.2402C101.11 34.0281 100.974 36.8564 102.04 38.9632C103.415 41.3523 105.621 42.3456 107.754 43.3075C108.633 43.7048 109.542 44.1178 110.394 44.6197L110.405 44.6249C111.367 45.2052 111.858 46.0887 111.654 46.8729C111.445 47.6884 110.509 48.2374 109.333 48.2374C109.171 48.2374 109.009 48.2269 108.852 48.206L108.795 48.1956C106.531 47.8819 101.936 46.1724 101.894 46.1515L101.748 46.0992V51.4264L101.821 51.4525C101.863 51.4682 106.306 52.9372 110.253 52.9372C112.407 52.9372 114.033 52.5033 115.084 51.6459C115.11 51.6302 117.52 49.6907 117.63 46.3919C117.645 45.4928 117.436 44.5622 117.002 43.6369Z" fill="#FFFBF1"/>
</svg>
