<svg width="111" height="34" viewBox="0 0 111 34" fill="none" xmlns="http://www.w3.org/2000/svg">
<path d="M36.5828 20.8208C36.5828 13.7896 42.2852 8.08282 49.3164 8.08282C56.3476 8.08282 62.05 13.7896 62.05 20.8208C62.05 27.8564 56.3476 33.5544 49.3164 33.5544C42.2852 33.55 36.5828 27.8564 36.5828 20.8208ZM49.3076 26.664C52.5328 26.664 55.142 24.0504 55.142 20.8252C55.142 17.6 52.5328 14.9864 49.3076 14.9864C46.078 14.9864 43.4732 17.6044 43.4732 20.8252C43.4688 24.0504 46.078 26.664 49.3076 26.664Z" fill="black"/>
<path d="M0.823975 0H11.472L17.4912 20.1696H17.5792L23.6908 0H34.044V32.8504H27.1976V9.6184H27.1052L20.536 32.8504H14.244L7.76277 9.6184H7.67037V32.8504H0.823975L0.823975 0ZM93.334 6.4768H100.18V0H93.334V6.4768ZM93.334 32.8504H100.18V8.7824H93.334V32.8504ZM103.978 32.8504H110.824V0H103.978V32.8504ZM64.9232 32.8504H71.7652V30.7164C73.5252 32.6612 75.7472 33.4048 78.3388 33.4048C85.2336 33.4048 90.4652 27.6232 90.4652 20.8648C90.4652 14.1152 85.2776 8.2368 78.3388 8.2368C75.8396 8.2368 73.6704 9.02 71.7652 10.6436V0H64.9232V32.8504ZM71.8488 20.8252C71.8488 17.6 74.458 14.9864 77.6832 14.9864C80.9084 14.9864 83.522 17.6044 83.522 20.8252C83.522 24.0504 80.9128 26.664 77.6832 26.664C74.458 26.664 71.8488 24.0504 71.8488 20.8252Z" fill="black"/>
</svg>
