<svg width="168" height="22" viewBox="0 0 168 22" fill="none" xmlns="http://www.w3.org/2000/svg">
<path d="M83.0573 8.68334H72.5907V0.65H69.424V21.05H72.5907V11.3833H83.0573V21.05H86.1907V0.65H83.0573V8.68334ZM52.174 0.583333C51.024 0.55 48.6907 0.55 46.624 0.55V21.0333H49.824V13.2667C50.624 13.2667 52.274 13.2 53.6073 13.1667C55.474 13.1333 60.3407 12.2 60.3073 6.58333C60.3573 0.25 53.3407 0.583333 52.174 0.583333ZM52.0073 10.55H49.8907V3.16667H51.6907C52.524 3.16667 57.4407 2.8 57.5907 6.61667C57.7907 10.3667 53.9073 10.55 52.0073 10.55ZM22.6406 0.55L22.674 21.0333H35.524V18.3667H25.874V11.4167H32.7073C32.7073 10.8333 32.674 9.98334 32.7073 8.86667H25.874V3.28333H35.524C35.4906 1.66667 35.524 0.55 35.524 0.55H22.6406ZM3.95731 5.55C3.95731 2.2 8.39064 2.06667 11.0073 4.21667C11.9073 1.63333 11.974 1.45 11.974 1.45C4.34064 -2.21667 0.857308 2.63333 0.857308 5.73334C0.857308 13.15 11.374 11.5667 9.85731 16.7833C9.32398 18.6833 5.94064 19.7667 2.04064 17.4C1.75731 18.2 1.29064 19.1667 0.823975 20.1333C5.97398 22.8333 12.6573 21.5333 12.874 15.9667C13.174 8.96667 3.95731 9.46667 3.95731 5.55ZM139.024 6.3C138.557 0.216667 132.657 0.683333 131.357 0.616667C130.274 0.583333 127.974 0.55 125.991 0.55V21H129.191V12.4C130.274 12.4 130.624 12.4 132.257 12.3333L138.091 21H141.974L135.524 11.8C137.257 11.1667 139.274 9.68334 139.024 6.3ZM131.174 10C130.457 10 129.907 10 129.191 9.96667V3.05H130.874C131.674 3.05 135.874 2.8 136.241 6.15C136.691 10.1167 132.041 10 131.174 10ZM160.141 0.583333H156.441L149.741 21.0667H152.907C153.907 17.3667 154.241 16.3167 154.241 16.3167L162.524 16.2833C163.491 19.0167 164.207 21.1 164.207 21.1H167.491L160.141 0.583333ZM154.974 13.9667L158.207 3.85H158.241L161.624 13.9333L154.974 13.9667ZM106.057 0C99.5407 0 95.2907 4.81667 95.2907 10.8C95.2907 16.7833 99.5407 21.6 106.057 21.6C112.574 21.6 116.824 16.7833 116.824 10.8C116.824 4.81667 112.574 0 106.057 0ZM106.057 18.65C101.274 18.65 98.574 15.1667 98.574 10.8C98.574 6.48334 101.274 2.95 106.057 2.95C110.807 2.95 113.541 6.43333 113.541 10.8C113.541 15.1167 110.841 18.65 106.057 18.65Z" fill="black"/>
</svg>
